<?xml version="1.0" encoding="utf-8"?>
<!-- Uploaded to: SVG Repo, www.svgrepo.com, Generator: SVG Repo Mixer Tools -->
<svg width="800px" height="800px" viewBox="0 -107.14 482.254 482.254" xmlns="http://www.w3.org/2000/svg"><defs><style>.a{fill:#ffffff;}.b{fill:#87cce3;}.c{fill:#211715;}.d{fill:#a18d7d;}.e{fill:#cfcfcf;}.f{fill:#7cc67a;}.g{fill:#d9d9d9;}.h{fill:#957f6e;}.i{fill:none;}</style></defs><path class="a" d="M246.935,266.072c0-26.287-.177-232.247-.177-234.413H371.483c0,2.166.176,207.607.176,233.894"/><path class="b" d="M303.161,87.377c-1.384,0-29.844.028-32.155.028v12.71H303.1C303.1,97.649,303.161,88.075,303.161,87.377Z"/><path class="b" d="M349.671,87.377c-1.383,0-29.844.028-32.155.028v12.71h32.091C349.607,97.649,349.671,88.075,349.671,87.377Z"/><path class="a" d="M362.679,100.115H256.448"/><path class="c" d="M362.679,98.115H256.448c-2.574,0-2.578,4,0,4H362.679c2.574,0,2.578-4,0-4Z"/><path class="b" d="M303.161,109.435c-1.384,0-29.844.028-32.155.028v12.71H303.1C303.1,119.707,303.161,110.133,303.161,109.435Z"/><path class="b" d="M349.671,109.435c-1.383,0-29.844.028-32.155.028v12.71h32.091C349.607,119.707,349.671,110.133,349.671,109.435Z"/><path class="a" d="M362.679,131.492H256.448"/><path class="c" d="M362.679,129.492H256.448c-2.574,0-2.578,4,0,4H362.679c2.574,0,2.578-4,0-4Z"/><path class="a" d="M362.679,122.173H256.448"/><path class="c" d="M362.679,120.173H256.448c-2.574,0-2.578,4,0,4H362.679c2.574,0,2.578-4,0-4Z"/><path class="c" d="M253.262,31.659q0,7.372.018,14.744l.042,34.311.051,43.111q.023,20.626.044,41.253.013,14.167.021,28.335,0,1.038,0,2.076c0,2.574,4,2.578,4,0q0-13.064-.018-26.128-.019-20.076-.042-40.151-.024-21.725-.051-43.449-.022-18.033-.044-36.065c-.007-5.88.118-11.776-.022-17.654,0-.127,0-.255,0-.383,0-2.573-4-2.578-4,0Z"/><path class="c" d="M244.758,31.659q0,7.372.018,14.744l.042,34.311.051,43.111q.022,20.626.044,41.253.013,14.167.021,28.335,0,1.038,0,2.076c0,2.574,4,2.578,4,0q0-13.064-.018-26.128-.018-20.076-.042-40.151-.024-21.725-.051-43.449Q248.8,67.728,248.78,49.7c-.007-5.88.118-11.776-.021-17.654,0-.127,0-.255,0-.383,0-2.573-4-2.578-4,0Z"/><path class="c" d="M371.717,29.659H246.758c-2.574,0-2.578,4,0,4H371.717c2.573,0,2.578-4,0-4Z"/><path class="c" d="M365.634,157.837q-.128-29.671-.225-59.342-.09-26.213-.165-52.423-.021-7.206-.031-14.413c0-2.573-4-2.578-4,0,0,11.548.054,23.1.09,34.644q.093,29.673.2,59.346.06,16.093.128,32.188c.011,2.573,4.011,2.578,4,0Z"/><path class="c" d="M369.483,31.659q0,5.469.017,10.936l.042,25.314q.027,16.128.051,32.256.024,15.882.044,31.763.015,11.953.022,23.908v2c0,2.573,4,2.578,4,0q0-11.149-.018-22.3-.018-15.585-.042-31.169-.024-16.3-.05-32.606l-.045-26.6c-.007-4.389.107-8.8-.021-13.185,0-.105,0-.21,0-.316,0-2.573-4-2.578-4,0Z"/><path class="a" d="M362.679,109.435H256.448"/><path class="c" d="M362.679,107.435H256.448c-2.574,0-2.578,4,0,4H362.679c2.574,0,2.578-4,0-4Z"/><path class="b" d="M303.161,65.32c-1.384,0-29.844.028-32.155.028v12.71H303.1C303.1,75.592,303.161,66.018,303.161,65.32Z"/><path class="b" d="M349.671,65.32c-1.383,0-29.844.028-32.155.028v12.71h32.091C349.607,75.592,349.671,66.018,349.671,65.32Z"/><path class="a" d="M362.679,78.058H256.448"/><path class="c" d="M362.679,76.058H256.448c-2.574,0-2.578,4,0,4H362.679c2.574,0,2.578-4,0-4Z"/><path class="a" d="M362.679,65.32H256.448"/><path class="c" d="M362.679,63.32H256.448c-2.574,0-2.578,4,0,4H362.679c2.574,0,2.578-4,0-4Z"/><path class="a" d="M362.679,64.7H256.448"/><path class="c" d="M362.679,62.7H256.448c-2.574,0-2.578,4,0,4H362.679c2.574,0,2.578-4,0-4Z"/><path class="b" d="M303.161,42.643c-1.384,0-29.844.028-32.155.028v12.71H303.1C303.1,52.915,303.161,43.341,303.161,42.643Z"/><path class="b" d="M349.671,42.643c-1.383,0-29.844.028-32.155.028v12.71h32.091C349.607,52.915,349.671,43.341,349.671,42.643Z"/><path class="c" d="M349.671,40.643q-13.662,0-27.324.024-2.415,0-4.831,0a2.029,2.029,0,0,0-2,2v12.71a2.03,2.03,0,0,0,2,2h32.091a2.028,2.028,0,0,0,2-2c0-4.246.059-8.492.064-12.738,0-2.574-4-2.578-4,0,0,4.246-.062,8.492-.064,12.738l2-2H317.516l2,2V42.671l-2,2q13.9,0,27.806-.025,2.173,0,4.349,0C352.245,44.643,352.249,40.643,349.671,40.643Z"/><path class="a" d="M362.679,55.381H256.448"/><path class="c" d="M362.679,53.381H256.448c-2.574,0-2.578,4,0,4H362.679c2.574,0,2.578-4,0-4Z"/><path class="a" d="M362.679,42.643H256.448"/><path class="c" d="M362.679,40.643H256.448c-2.574,0-2.578,4,0,4H362.679c2.574,0,2.578-4,0-4Z"/><path class="b" d="M303.161,132.112c-1.384,0-29.844.028-32.155.028v12.71H303.1C303.1,142.384,303.161,132.81,303.161,132.112Z"/><path class="b" d="M349.671,132.112c-1.383,0-29.844.028-32.155.028v12.71h32.091C349.607,142.384,349.671,132.81,349.671,132.112Z"/><path class="c" d="M303.161,85.377q-13.662,0-27.325.025-2.415,0-4.83,0a2.03,2.03,0,0,0-2,2v12.71a2.028,2.028,0,0,0,2,2H303.1a2.03,2.03,0,0,0,2-2c0-4.246.058-8.492.064-12.738,0-2.574-4-2.578-4,0-.006,4.246-.062,8.492-.064,12.738l2-2H271.006l2,2V87.405l-2,2q13.9,0,27.805-.024l4.35,0C305.735,89.377,305.739,85.377,303.161,85.377Z"/><path class="c" d="M349.671,85.377q-13.662,0-27.324.025-2.415,0-4.831,0a2.03,2.03,0,0,0-2,2v12.71a2.029,2.029,0,0,0,2,2h32.091a2.028,2.028,0,0,0,2-2c0-4.246.059-8.492.064-12.738,0-2.574-4-2.578-4,0,0,4.246-.062,8.492-.064,12.738l2-2H317.516l2,2V87.405l-2,2q13.9,0,27.806-.024l4.349,0C352.245,89.377,352.249,85.377,349.671,85.377Z"/><path class="c" d="M303.161,107.435q-13.662,0-27.325.024-2.415,0-4.83,0a2.029,2.029,0,0,0-2,2v12.71a2.029,2.029,0,0,0,2,2H303.1a2.03,2.03,0,0,0,2-2c0-4.246.058-8.492.064-12.738,0-2.574-4-2.578-4,0-.006,4.246-.062,8.492-.064,12.738l2-2H271.006l2,2v-12.71l-2,2q13.9,0,27.805-.025,2.175,0,4.35,0C305.735,111.435,305.739,107.435,303.161,107.435Z"/><path class="c" d="M349.671,107.435q-13.662,0-27.324.024-2.415,0-4.831,0a2.029,2.029,0,0,0-2,2v12.71a2.03,2.03,0,0,0,2,2h32.091a2.028,2.028,0,0,0,2-2c0-4.246.059-8.492.064-12.738,0-2.574-4-2.578-4,0,0,4.246-.062,8.492-.064,12.738l2-2H317.516l2,2v-12.71l-2,2q13.9,0,27.806-.025,2.173,0,4.349,0C352.245,111.435,352.249,107.435,349.671,107.435Z"/><path class="c" d="M303.161,63.32q-13.662,0-27.325.024-2.415,0-4.83,0a2.029,2.029,0,0,0-2,2v12.71a2.029,2.029,0,0,0,2,2H303.1a2.03,2.03,0,0,0,2-2c0-4.246.058-8.492.064-12.738,0-2.574-4-2.578-4,0-.006,4.246-.062,8.492-.064,12.738l2-2H271.006l2,2V65.348l-2,2q13.9,0,27.805-.025,2.175,0,4.35,0C305.735,67.32,305.739,63.32,303.161,63.32Z"/><path class="c" d="M349.671,63.32q-13.662,0-27.324.024-2.415,0-4.831,0a2.029,2.029,0,0,0-2,2v12.71a2.03,2.03,0,0,0,2,2h32.091a2.028,2.028,0,0,0,2-2c0-4.246.059-8.492.064-12.738,0-2.574-4-2.578-4,0,0,4.246-.062,8.492-.064,12.738l2-2H317.516l2,2V65.348l-2,2q13.9,0,27.806-.025,2.173,0,4.349,0C352.245,67.32,352.249,63.32,349.671,63.32Z"/><path class="c" d="M303.161,40.643q-13.662,0-27.325.024-2.415,0-4.83,0a2.029,2.029,0,0,0-2,2v12.71a2.029,2.029,0,0,0,2,2H303.1a2.03,2.03,0,0,0,2-2c0-4.246.058-8.492.064-12.738,0-2.574-4-2.578-4,0-.006,4.246-.062,8.492-.064,12.738l2-2H271.006l2,2V42.671l-2,2q13.9,0,27.805-.025l4.35,0C305.735,44.643,305.739,40.643,303.161,40.643Z"/><path class="c" d="M303.161,130.112q-13.662,0-27.325.024-2.415,0-4.83,0a2.029,2.029,0,0,0-2,2v12.71a2.029,2.029,0,0,0,2,2H303.1a2.03,2.03,0,0,0,2-2c0-4.246.058-8.492.064-12.738,0-2.574-4-2.578-4,0-.006,4.246-.062,8.492-.064,12.738l2-2H271.006l2,2V132.14l-2,2q13.9,0,27.805-.025,2.175,0,4.35,0C305.735,134.112,305.739,130.112,303.161,130.112Z"/><path class="c" d="M349.671,130.112q-13.662,0-27.324.024-2.415,0-4.831,0a2.029,2.029,0,0,0-2,2v12.71a2.03,2.03,0,0,0,2,2h32.091a2.028,2.028,0,0,0,2-2c0-4.246.059-8.492.064-12.738,0-2.574-4-2.578-4,0,0,4.246-.062,8.492-.064,12.738l2-2H317.516l2,2V132.14l-2,2q13.9,0,27.806-.025,2.173,0,4.349,0C352.245,134.112,352.249,130.112,349.671,130.112Z"/><path class="a" d="M362.679,144.85H256.448"/><path class="c" d="M362.679,142.85H256.448c-2.574,0-2.578,4,0,4H362.679c2.574,0,2.578-4,0-4Z"/><path class="a" d="M362.679,132.112H256.448"/><path class="c" d="M362.679,130.112H256.448c-2.574,0-2.578,4,0,4H362.679c2.574,0,2.578-4,0-4Z"/><path class="a" d="M362.679,87.377H256.448"/><path class="c" d="M362.679,85.377H256.448c-2.574,0-2.578,4,0,4H362.679c2.574,0,2.578-4,0-4Z"/><path class="a" d="M224.755,265.746c0-11.532-.242-107.86-.242-120.561H131.5s.266,120.3,0,120.561"/><path class="c" d="M226.755,195.206c0-13.355-.147-26.709-.212-40.063q-.024-4.978-.03-9.958a2.029,2.029,0,0,0-2-2H142.84c-2.574,0-2.578,4,0,4h81.673l-2-2c0,13.554.144,27.108.212,40.663q.024,4.678.03,9.358c0,2.574,4,2.578,4,0Z"/><path class="c" d="M186.9,158.661c8.752,0,17.5-.108,26.256-.11,2.574,0,2.579-4,0-4-8.752,0-17.5.109-26.256.11-2.574,0-2.578,4,0,4Z"/><path class="c" d="M198.239,167.009c4.972,0,9.945-.108,14.917-.11,2.574,0,2.579-4,0-4-4.972,0-9.945.108-14.917.11-2.574,0-2.579,4,0,4Z"/><path class="a" d="M277.556,265.746c-.02-17.908-.039-93.909-.04-97.855,9.829,0,110.222,0,137.061,0v1.155c0,5.9.083,83.283.083,96.071"/><path class="c" d="M279.557,265.746q-.023-19.98-.022-39.961-.009-23.16-.015-46.32,0-5.789,0-11.579l-2,2h137.06l-2-2q0,26.113.044,52.227.009,9.887.016,19.773c0,2.574,4,2.579,4,0q-.024-32.179-.055-64.361,0-3.819,0-7.639a2.029,2.029,0,0,0-2-2H277.517a2.03,2.03,0,0,0-2,2q0,14.993.008,29.983.007,24.57.019,49.14,0,9.367.013,18.737c0,2.574,4,2.579,4,0Z"/><path class="b" d="M361.914,219.569c-1.376,0-29.689.039-31.988.039V258.6h31.925C361.851,255.151,361.914,220.545,361.914,219.569Z"/><path class="c" d="M361.914,217.569q-13.619,0-27.237.034-2.376,0-4.751,0a2.029,2.029,0,0,0-2,2V258.6a2.029,2.029,0,0,0,2,2h31.925a2.029,2.029,0,0,0,2-2q0-17.076.055-34.151,0-2.44.008-4.881c0-2.574-4-2.578-4,0q0,16.436-.055,32.872,0,3.081-.008,6.16l2-2H329.926l2,2V219.608l-2,2q13.857,0,27.713-.034,2.138,0,4.275-.005C364.488,221.568,364.493,217.568,361.914,217.569Z"/><path class="c" d="M337.084,217.826V258.6c0,2.574,4,2.578,4,0V217.826c0-2.574-4-2.578-4,0Z"/><path class="b" d="M401.439,190.39c-1.383,0-29.844.028-32.155.028v15.544h32.091C401.375,203.5,401.439,191.088,401.439,190.39Z"/><path class="c" d="M401.439,188.39q-13.662,0-27.324.024l-4.831,0a2.029,2.029,0,0,0-2,2v15.544a2.029,2.029,0,0,0,2,2h32.091a2.028,2.028,0,0,0,2-2c0-5.191.059-10.381.064-15.572,0-2.574-4-2.578-4,0,0,5.191-.062,10.381-.064,15.572l2-2H369.284l2,2V190.418l-2,2q13.9,0,27.806-.025,2.175,0,4.349,0C404.013,192.389,404.017,188.389,401.439,188.39Z"/><path class="c" d="M383.241,190.418V211c0,2.573,4,2.578,4,0v-5.035c0-2.573-4-2.578-4,0V211c0,2.573,4,2.578,4,0V190.418c0-2.574-4-2.579-4,0Z"/><path class="c" d="M287.228,178.545q6.754,0,13.511-.011l27.916-.026,33.215-.032,28.979-.028q7.812-.007,15.625-.013h.553c2.574,0,2.579-4,0-4q-6.694,0-13.391.011l-27.855.027-33.211.032-29.034.027q-7.869.007-15.737.014h-.571c-2.574,0-2.578,4,0,4Z"/><path class="a" d="M352.927,228.533c.4.651,1.329,1.776,1.733,2.417"/><path class="c" d="M351.2,229.543c.522.844,1.2,1.579,1.733,2.417a2.1,2.1,0,0,0,1.195.919,1.526,1.526,0,0,0,.8.036,1.493,1.493,0,0,0,.744-.238,2.017,2.017,0,0,0,.919-1.195,2.037,2.037,0,0,0-.2-1.541c-.53-.838-1.211-1.573-1.733-2.417a2.089,2.089,0,0,0-1.195-.919,1.516,1.516,0,0,0-.8-.036,1.486,1.486,0,0,0-.743.237A2.021,2.021,0,0,0,351,228a2.052,2.052,0,0,0,.2,1.541Z"/><path class="a" d="M346.243,229.479q3.811,5.473,8.013,10.66"/><path class="c" d="M344.516,230.489q3.961,5.681,8.326,11.064a2.006,2.006,0,0,0,2.829,0,2.057,2.057,0,0,0,0-2.828c-2.7-3.332-5.149-6.595-7.7-10.255a2,2,0,1,0-3.454,2.019Z"/><path class="d" d="M329.828,265.6V217.3h-57.5c.083,17.415-.011,35.22-.011,48.583"/><path class="c" d="M331.828,265.6V219.608c0-2.574-4-2.578-4,0V265.6c0,2.574,4,2.578,4,0Z"/><path class="c" d="M284.7,220.136v45.61c0,2.574,4,2.578,4,0v-45.61c0-2.574-4-2.578-4,0Z"/><path class="c" d="M299.077,220.136q0,19.482,0,38.965,0,3.392,0,6.782c0,2.574,4,2.578,4,0q0-19.293,0-38.585v-7.162c0-2.574-4-2.578-4,0Z"/><path class="c" d="M313.453,220.136v44.981c0,2.574,4,2.578,4,0V220.136c0-2.574-4-2.578-4,0Z"/><path class="c" d="M270.326,220.136c.071,15.249-.01,30.5-.011,45.748,0,2.574,4,2.578,4,0,0-15.25.082-30.5.011-45.748-.012-2.574-4.012-2.579-4,0Z"/><path class="e" d="M272.326,205.962h148v14.174h-148Z"/><path class="c" d="M272.326,207.962h148l-2-2v14.174l2-2h-148l2,2V205.962c0-2.573-4-2.578-4,0v14.174a2.03,2.03,0,0,0,2,2h148a2.03,2.03,0,0,0,2-2V205.962a2.029,2.029,0,0,0-2-2h-148C269.753,203.962,269.748,207.962,272.326,207.962Z"/><path class="c" d="M330.076,260.726H414.3c2.574,0,2.578-4,0-4H330.076c-2.574,0-2.578,4,0,4Z"/><path class="f" d="M394.927,254.214h-7.713c-1.8,0-4-6.425-1.258-10.64,2.973-4.569,9.733-3.744,14.4-3.8,6.242-.082,11.778-.022,18.263.253,5.9,0,8.4,1.34,9.938,4.9.887,2.053.971,9.293-3.7,9.293Z"/><path class="c" d="M394.927,252.214h-6.37c-.306,0-.614-.007-.919,0-.392.009-.55.016-.044.067.371.037.187.209,0-.121.062.108-.314-.593-.388-.778-1.139-2.818-.651-6.7,2.137-8.336,2.91-1.713,6.754-1.294,9.986-1.275,4.823.028,9.641-.054,14.464.08,2.436.068,4.907.054,7.334.271a7.637,7.637,0,0,1,3.925,1.236,5.615,5.615,0,0,1,.923.972,7.653,7.653,0,0,1,.515.868,3.529,3.529,0,0,1,.241.51c.071.21.118.425.171.64a1.225,1.225,0,0,1,.077.451,11.78,11.78,0,0,1,.032,1.961,6.611,6.611,0,0,1-.3,1.629,4.352,4.352,0,0,1-.6,1.243c-.4.51-.743.558-1.442.578-1.807.052-3.623,0-5.431,0l-24.317,0c-2.574,0-2.578,4,0,4l24.575,0c1.781,0,3.572.053,5.353,0,3.955-.118,5.8-3.531,6.125-7.086a10,10,0,0,0-2.867-8.391c-3.315-3.057-8.243-2.682-12.424-2.823-5.507-.186-11.006-.1-16.513-.14-4.053-.031-8.716-.309-12.244,2.066-4.2,2.829-5.255,8.55-3.386,13.083.728,1.765,1.876,3.223,3.908,3.295,2.484.087,4.988,0,7.473,0C397.5,256.214,397.505,252.214,394.927,252.214Z"/><path class="a" d="M384.407,265.6V252.009h45.286V265.6"/><path class="c" d="M386.407,265.6V252.009l-2,2h45.286l-2-2V265.6c0,2.574,4,2.578,4,0V252.009a2.029,2.029,0,0,0-2-2H384.407a2.028,2.028,0,0,0-2,2V265.6c0,2.574,4,2.578,4,0Z"/><path class="a" d="M154.157,265.8c0-9.546.066-56.177.066-60.578H255.958c0,4.4-.066,50.98-.066,60.526"/><path class="c" d="M156.157,265.8q0-11.665.022-23.329l.036-29.078q0-4.086.008-8.171l-2,2H255.958l-2-2q0,9.821-.022,19.642-.02,15.037-.036,30.073,0,5.406-.008,10.811c0,2.574,4,2.578,4,0q0-11.655.022-23.312l.036-29.049q0-4.083.008-8.165a2.029,2.029,0,0,0-2-2H154.223a2.029,2.029,0,0,0-2,2q0,9.829-.022,19.659-.02,15.051-.036,30.1,0,5.408-.008,10.817c0,2.574,4,2.578,4,0Z"/><path class="d" d="M244.817,265.746v-41.4H219.746c.037,10.223,0,33.553,0,41.4"/><path class="b" d="M177.232,224.884h9.062c-.012,9.593,0,19.386,0,26.747h-9.062Z"/><path class="b" d="M194.22,224.884h9.062c-.013,9.593,0,19.386,0,26.747H194.22Z"/><path class="c" d="M246.817,265.746v-41.4a2.03,2.03,0,0,0-2-2H219.746a2.03,2.03,0,0,0-2,2c.04,11.406.014,22.812,0,34.218q0,3.59,0,7.178c0,2.574,4,2.578,4,0q0-16.494.015-32.988,0-4.2-.015-8.408l-2,2h25.071l-2-2v41.4c0,2.574,4,2.578,4,0Z"/><path class="c" d="M177.232,226.884h9.062l-2-2q-.017,13.374,0,26.747l2-2h-9.062l2,2V224.884c0-2.574-4-2.578-4,0v26.747a2.03,2.03,0,0,0,2,2h9.062a2.029,2.029,0,0,0,2-2q0-13.374,0-26.747a2.029,2.029,0,0,0-2-2h-9.062C174.659,222.884,174.654,226.884,177.232,226.884Z"/><path class="c" d="M194.22,226.884h9.062l-2-2q-.017,13.374,0,26.747l2-2H194.22l2,2V224.884c0-2.574-4-2.578-4,0v26.747a2.029,2.029,0,0,0,2,2h9.062a2.029,2.029,0,0,0,2-2q0-13.374,0-26.747a2.03,2.03,0,0,0-2-2H194.22C191.646,222.884,191.642,226.884,194.22,226.884Z"/><path class="c" d="M225.424,244.757c.03,1.9,0,3.809,0,5.713a2,2,0,0,0,4,0c0-1.9.029-3.809,0-5.713a2,2,0,0,0-4,0Z"/><path class="a" d="M133.585,265.735c0-14.341-.652-151.4-.652-167.192H24.983c0,2.166.176,141.138.176,167.425"/><path class="c" d="M135.585,265.735c0-6.893-.038-13.786-.065-20.678q-.073-18.882-.156-37.764-.093-22.01-.188-44.018-.084-19.76-.163-39.519-.047-11.925-.079-23.85,0-.681,0-1.363a2.029,2.029,0,0,0-2-2H24.983a2.03,2.03,0,0,0-2,2q0,7.542.017,15.085.021,17.631.043,35.263.026,22.065.05,44.129.024,21,.044,42,.014,14.432.022,28.863v2.082c0,2.574,4,2.578,4,0q0-13.232-.018-26.463-.018-20.557-.042-41.114-.024-22.23-.051-44.459-.021-18.418-.044-36.838Q27,111,26.99,104.906c0-1.975.129-4-.007-5.974-.009-.128,0-.26,0-.389l-2,2h107.95l-2-2c0,7.122.038,14.244.065,21.365q.074,19.057.156,38.116.093,22.019.188,44.038.084,19.6.163,39.206.047,11.6.079,23.208,0,.63,0,1.259c0,2.574,4,2.578,4,0Z"/><path class="c" d="M132.4,236.911H26.169c-2.574,0-2.579,4,0,4H132.4c2.574,0,2.578-4,0-4Z"/><path class="c" d="M132.4,224.757H26.169c-2.574,0-2.579,4,0,4H132.4c2.574,0,2.578-4,0-4Z"/><path class="c" d="M132.4,194.276H26.169c-2.574,0-2.579,4,0,4H132.4c2.574,0,2.578-4,0-4Z"/><path class="c" d="M132.4,182.122H26.169c-2.574,0-2.579,4,0,4H132.4c2.574,0,2.578-4,0-4Z"/><path class="b" d="M119.127,125.915c-3.373,0-72.766.028-78.4.028v15.545h78.244C118.971,139.021,119.127,126.613,119.127,125.915Z"/><path class="c" d="M90.994,126.2v14.255a2,2,0,0,0,4,0V126.2a2,2,0,0,0-4,0Z"/><path class="c" d="M64.86,126.2V141.46c0,2.574,4,2.578,4,0V126.2c0-2.573-4-2.578-4,0Z"/><path class="b" d="M119.127,168.359c-3.373,0-72.766.028-78.4.028v15.545h78.244C118.971,181.466,119.127,169.057,119.127,168.359Z"/><path class="c" d="M90.994,168.643V182.9a2,2,0,0,0,4,0V168.643a2,2,0,0,0-4,0Z"/><path class="c" d="M64.86,168.359V183.9c0,2.574,4,2.578,4,0V168.359c0-2.574-4-2.578-4,0Z"/><path class="b" d="M119.127,210.582c-3.373,0-72.766.027-78.4.027v15.545h78.244C118.971,223.688,119.127,211.28,119.127,210.582Z"/><path class="c" d="M119.127,123.915q-13.233,0-26.467.009-20.193.007-40.386.015-5.774,0-11.547,0a2.028,2.028,0,0,0-2,2v15.545a2.029,2.029,0,0,0,2,2h78.244a2.03,2.03,0,0,0,2-2c0-5.192.144-10.382.156-15.573.006-2.574-3.994-2.578-4,0-.012,5.191-.152,10.381-.156,15.573l2-2H40.727l2,2V125.943l-2,2q14.04,0,28.081-.01l39.934-.015q5.192,0,10.385,0C121.7,127.915,121.705,123.915,119.127,123.915Z"/><path class="c" d="M119.127,166.359q-13.233,0-26.467.01l-40.386.015q-5.774,0-11.547,0a2.028,2.028,0,0,0-2,2v15.545a2.029,2.029,0,0,0,2,2h78.244a2.029,2.029,0,0,0,2-2c0-5.191.144-10.382.156-15.573.006-2.574-3.994-2.577-4,0-.012,5.191-.152,10.382-.156,15.573l2-2H40.727l2,2V168.387l-2,2q14.04,0,28.081-.009l39.934-.015q5.192,0,10.385,0C121.7,170.359,121.705,166.359,119.127,166.359Z"/><path class="c" d="M119.127,208.582q-13.233,0-26.467.009l-40.386.015q-5.774,0-11.547,0a2.029,2.029,0,0,0-2,2v15.545a2.029,2.029,0,0,0,2,2h78.244a2.029,2.029,0,0,0,2-2c0-5.191.144-10.381.156-15.572.006-2.575-3.994-2.578-4,0-.012,5.191-.152,10.381-.156,15.572l2-2H40.727l2,2V210.609l-2,2q14.04,0,28.081-.009l39.934-.015q5.192,0,10.385,0C121.7,212.581,121.705,208.581,119.127,208.582Z"/><path class="c" d="M90.994,210.865v14.254a2,2,0,0,0,4,0V210.865a2,2,0,0,0-4,0Z"/><path class="c" d="M64.86,210.582v15.544c0,2.574,4,2.578,4,0V210.582c0-2.574-4-2.579-4,0Z"/><path class="c" d="M132.4,151.642H26.169c-2.574,0-2.579,4,0,4H132.4c2.574,0,2.578-4,0-4Z"/><path class="c" d="M132.4,139.488H26.169c-2.574,0-2.579,4,0,4H132.4c2.574,0,2.578-4,0-4Z"/><path class="c" d="M132.4,108.481H26.169c-2.574,0-2.579,4,0,4H132.4c2.574,0,2.578-4,0-4Z"/><path class="c" d="M438.363,174.188c.059,2.156-.058,4.314,0,6.47a2,2,0,0,0,4,0c-.059-2.156.058-4.314,0-6.47a2,2,0,1,0-4,0Z"/><path class="c" d="M445.153,174.188c.059,2.156-.058,4.314,0,6.47a2,2,0,1,0,4,0c-.059-2.156.058-4.314,0-6.47a2,2,0,0,0-4,0Z"/><path class="c" d="M438.363,208.2c.059,2.156-.058,4.314,0,6.47a2,2,0,1,0,4,0c-.059-2.156.058-4.314,0-6.47a2,2,0,0,0-4,0Z"/><path class="c" d="M445.153,208.2c.059,2.156-.058,4.314,0,6.47a2,2,0,0,0,4,0c-.059-2.156.058-4.314,0-6.47a2,2,0,1,0-4,0Z"/><path class="c" d="M420.972,186.208a19.6,19.6,0,0,0,14.053-.169,2.063,2.063,0,0,0,1.4-2.46,2.013,2.013,0,0,0-2.46-1.4,15.879,15.879,0,0,1-11.926.169,2.008,2.008,0,0,0-2.46,1.4,2.057,2.057,0,0,0,1.4,2.46Z"/><path class="c" d="M426.333,217.868a10.64,10.64,0,0,0,7.558-.085,2.188,2.188,0,0,0,1.195-.919,2.044,2.044,0,0,0,.2-1.541,2.022,2.022,0,0,0-.92-1.2,1.936,1.936,0,0,0-1.541-.2,8.992,8.992,0,0,1-2.09.56l.532-.072a9.637,9.637,0,0,1-2.528.008l.532.071a8.558,8.558,0,0,1-1.877-.482,2.008,2.008,0,0,0-1.541.2,2,2,0,0,0-.718,2.737,2.3,2.3,0,0,0,1.2.919Z"/><path class="e" d="M464.225,265.506c0-8.7-.345-76.856-.432-97.308a3.992,3.992,0,0,0-4-3.974l-2.476,0a4,4,0,0,0-3.994,4c.012,15.816.037,69.72.061,97.191"/><path class="c" d="M466.225,265.506c0-9.8-.07-19.6-.114-29.395q-.105-22.824-.216-45.648-.042-9.1-.085-18.194c-.014-3.224.425-6.788-2.55-8.932-1.914-1.379-4.913-1.41-7.16-.979a6.014,6.014,0,0,0-4.652,4.657c-.465,2.442-.126,5.222-.124,7.7q0,4.771,0,9.543.007,12.186.014,24.371.013,25.85.033,51.7,0,2.546,0,5.092c0,2.574,4,2.579,4,0q-.021-24.285-.033-48.572-.012-22.154-.025-44.307,0-1.657,0-3.315c0-1.27.1-2.7,1.649-2.983a9.285,9.285,0,0,1,3.3.035,2.053,2.053,0,0,1,1.511,1.576,18.246,18.246,0,0,1,.029,3.223q.037,8.472.079,16.944.1,22.049.208,44.1.074,15.927.131,31.853,0,.768,0,1.536c0,2.573,4,2.578,4,0Z"/><path class="c" d="M440.351,182.658c8.977,0,17.955-.065,26.932-.1q2.757-.011,5.515-.014c2.574,0,2.578-4,0-4-8.934,0-17.867.066-26.8.1q-2.823.011-5.646.014c-2.574,0-2.578,4,0,4Z"/><path class="c" d="M440.351,216.674c8.977,0,17.955-.065,26.932-.1q2.757-.009,5.515-.014c2.574,0,2.578-4,0-4-8.934,0-17.867.066-26.8.1-1.882.006-3.764.014-5.646.014-2.574,0-2.578,4,0,4Z"/><path class="a" d="M456.885,35.736c.2.04.3-.1.218-.321-.68-1.73-4.142-5.777-9.946-5.777-8.028,0-10.2,4.569-9.964,5.977-.9-.541-6.455-2.1-9.99.621-1.691,1.3-2.882,4.446-1.933,6.357-3.137-1.464-6.9,3.9-4.873,7.416,3.272,5.676,9.9,5.211,12.5,4.065a17.751,17.751,0,0,0,9.041,3.595,38.7,38.7,0,0,0,8.429.115,17.478,17.478,0,0,0,6.837-2.157,7.03,7.03,0,0,0,3.326-5.436,8.675,8.675,0,0,0,5.548-.233c2.675-1.02,4.023-4.1,3.928-7.292a8.242,8.242,0,0,0-4.269-6.923,9.542,9.542,0,0,0-8.489.117"/><path class="g" d="M439.122,35.083c.106.751.05.382.058.184.011-.3-.19.445-.024.2.1-.152.371-.839.065-.313.151-.258.282-.523.442-.777s-.243.233.134-.172c.108-.116.212-.234.324-.346.159-.16.327-.31.5-.455-.309.259.105-.078.178-.126a10.14,10.14,0,0,1,1.227-.7,11.69,11.69,0,0,1,3.044-.82,10.832,10.832,0,0,1,7.288,1.39,9.164,9.164,0,0,1,2.068,1.777c.058.066.455.567.192.215q.165.222.314.454c.087.137.162.281.247.418.306.492-.049-.373.022.133l.2-1.541-.078.114,1.727-.99-.167.016a2.056,2.056,0,0,0-2,2,2.015,2.015,0,0,0,2,2c2.022-.2,2.652-1.954,1.806-3.64a9.8,9.8,0,0,0-1.564-2.149,13.515,13.515,0,0,0-6.186-3.788c-4.5-1.285-10.812-.466-14.022,3.272a5.912,5.912,0,0,0-1.655,4.715,2.013,2.013,0,0,0,2.461,1.4,2.052,2.052,0,0,0,1.4-2.46Z"/><path class="g" d="M458.259,37.587a7.55,7.55,0,0,1,6.152-.281q-.21-.09.124.064.193.1.381.2a6.849,6.849,0,0,1,.716.465c-.168-.127.348.311.41.37.205.2.4.4.582.617q.229.279.081.095c.083.114.163.231.24.349a8.368,8.368,0,0,1,.426.733c.065.126.127.253.185.382-.062-.153-.05-.116.039.111.091.269.18.537.248.813a6.79,6.79,0,0,1-1.062,5.545c.2-.258-.274.284-.326.335-.092.09-.187.177-.286.261q.231-.165-.057.039a3.48,3.48,0,0,1-1.305.593,6.7,6.7,0,0,1-3.149.1,2.057,2.057,0,0,0-2.46,1.4,2.017,2.017,0,0,0,1.4,2.461c2.61.456,5.443.4,7.694-1.2a9,9,0,0,0,3.534-5.971,10.791,10.791,0,0,0-1.256-7.339,10.053,10.053,0,0,0-5.724-4.487,11.842,11.842,0,0,0-8.6.9,2,2,0,1,0,2.019,3.454Z"/><path class="g" d="M458.529,49.582c.116,5.18-6.607,6.245-10.536,6.369-4.528.143-10.055-.208-13.683-3.294-1.95-1.658-4.793,1.158-2.829,2.829,4.825,4.1,11.827,4.856,17.921,4.388,5.915-.454,13.286-3.193,13.127-10.292-.058-2.57-4.058-2.579-4,0Z"/><path class="g" d="M438.2,33.888a8.623,8.623,0,0,0-2.558-.861,15,15,0,0,0-4.162-.31,10.653,10.653,0,0,0-4.657,1.364,7.879,7.879,0,0,0-3.2,3.787,6.94,6.94,0,0,0-.082,5.735,2.008,2.008,0,0,0,2.736.717A2.056,2.056,0,0,0,427,41.584c.233.5,0-.084-.038-.2-.134-.407-.01.346-.015-.06,0-.207,0-.414,0-.621,0-.453-.084.309.007-.1.084-.381.188-.745.307-1.116q.125-.319-.012.014c.046-.1.094-.2.144-.3.075-.147.155-.292.24-.433a6.45,6.45,0,0,1,.359-.538c-.276.371.012,0,.086-.075.136-.145.281-.277.431-.408-.353.31.028-.01.123-.072q.282-.183.579-.337c.144-.074.449-.211.124-.076a7.728,7.728,0,0,1,1.17-.373c.184-.044.371-.075.556-.116.409-.09-.351.028.185-.027.367-.038.735-.056,1.1-.059s.709.012,1.062.039c.169.013.338.032.507.048.429.04-.435-.08.088.013a15.008,15.008,0,0,1,1.622.362c.2.059.388.132.584.2l.1.04c-.374-.161-.474-.2-.3-.126.027-.01.147.075.175.091a2,2,0,0,0,2.018-3.454Z"/><path class="g" d="M426.279,40.866a4.888,4.888,0,0,0-3.668-.256,6.448,6.448,0,0,0-2.861,2.043,7.723,7.723,0,0,0-1.608,7.172c1.573,4.526,6.517,7.058,11.1,6.965a10.4,10.4,0,0,0,5.233-1.289,2,2,0,0,0-2.019-3.453c-.167.1-.345.181-.517.277-.2.11.507-.182.08-.039-.15.05-.3.1-.45.149-.269.081-.542.148-.817.2-.148.03-.3.05-.447.081-.3.063.189-.047.182-.021a1.406,1.406,0,0,1-.3.034,11.728,11.728,0,0,1-2.209.014c-.091-.008-.182-.022-.273-.028-.277-.016.394.071.119.017-.184-.036-.37-.06-.554-.1a10.238,10.238,0,0,1-1.182-.315c-.187-.062-.368-.137-.553-.2.471.165-.077-.04-.2-.1a9.03,9.03,0,0,1-1.19-.707c-.086-.06-.172-.122-.255-.186.061.047.3.259.029.012-.16-.149-.328-.289-.484-.442s-.316-.321-.464-.489c-.077-.087-.15-.176-.224-.264-.237-.28.066.1-.063-.087s-.277-.4-.4-.611c-.047-.076-.349-.637-.255-.43s-.1-.337-.125-.422c-.025-.1-.035-.2-.064-.3-.067-.224,0,.374.008,0,0-.206-.012-.41,0-.617.006-.1.017-.2.028-.308-.048.462-.024.171,0,.072.062-.226.107-.453.18-.677.033-.1.077-.194.1-.293.063-.225-.165.306.014-.021.124-.226.237-.455.376-.672.055-.085.115-.167.17-.252.2-.307-.159.14.011-.01s.3-.328.455-.476c.069-.064.148-.123.215-.189-.332.327-.074.06.046-.017.077-.049.155-.095.234-.139.063-.035.421-.188.121-.07-.336.132.341-.129.377-.091.089.094-.5-.012-.155.024.063.007.327-.039.378.006.011.009-.52-.137-.153-.01.123.043.511.188.021-.026A2.066,2.066,0,0,0,427,43.6a2.015,2.015,0,0,0-.718-2.737Z"/><path class="g" d="M435.717,49.241a6.488,6.488,0,0,0,9.012,2.417A2,2,0,1,0,442.71,48.2a4.137,4.137,0,0,1-.62.339l.478-.2a4.357,4.357,0,0,1-1.051.288l.532-.072a4.822,4.822,0,0,1-1.253-.007l.532.072a5.054,5.054,0,0,1-1.213-.34l.478.2a4.821,4.821,0,0,1-1.013-.6l.405.313a4.4,4.4,0,0,1-.715-.716l.313.405a4.054,4.054,0,0,1-.412-.668,2.011,2.011,0,0,0-2.736-.717,2.05,2.05,0,0,0-.718,2.736Z"/><path class="a" d="M157.98,10.951c.3.059.443-.145.317-.468-.99-2.522-6.037-8.422-14.5-8.422-11.7,0-14.877,6.661-14.526,8.713-1.315-.788-9.41-3.056-14.563.906-2.465,1.9-4.2,6.482-2.818,9.267-4.573-2.134-10.059,5.684-7.1,10.812,4.769,8.273,14.434,7.595,18.223,5.924,3.226,2.851,8.9,4.814,13.18,5.242a56.486,56.486,0,0,0,12.288.168,25.484,25.484,0,0,0,9.967-3.145,10.249,10.249,0,0,0,4.849-7.925c3.262.659,5.2.76,8.088-.339,3.9-1.487,5.864-5.984,5.726-10.631a12.012,12.012,0,0,0-6.224-10.092,13.908,13.908,0,0,0-12.374.17"/><path class="g" d="M131.2,10.243c.091.618.008.2.063-.1-.128.677.083-.157.137-.383.05-.209.131-.34,0-.039.061-.137.124-.275.195-.407a9.923,9.923,0,0,1,.563-.92c.236-.343-.022,0,.195-.25.129-.148.259-.295.4-.437a11.412,11.412,0,0,1,.91-.843,12.037,12.037,0,0,1,2.629-1.516c5.247-2.185,11.808-1.762,16.434,1.616a14.7,14.7,0,0,1,2.6,2.462,9.378,9.378,0,0,1,.716,1.016c.1.17.2.347.3.519.28.483,0-.205.08.329l.2-1.542-.114.167,1.727-.99-.243.023a2.056,2.056,0,0,0-2,2,2.014,2.014,0,0,0,2,2c2.394-.231,2.714-2.321,1.726-4.149a14.1,14.1,0,0,0-2.2-2.917,18.826,18.826,0,0,0-8.827-5.2c-6.2-1.616-14.869-.488-19.219,4.709a7.625,7.625,0,0,0-2.118,5.914,2.014,2.014,0,0,0,2.461,1.4,2.051,2.051,0,0,0,1.4-2.46Z"/><path class="g" d="M159.52,12.858a11.929,11.929,0,0,1,9.674-.5,9.965,9.965,0,0,1,5.644,6.767,10.749,10.749,0,0,1-1.641,8.789c-2.008,2.581-5.507,2.874-8.5,2.351a2.057,2.057,0,0,0-2.46,1.4,2.017,2.017,0,0,0,1.4,2.46c3.569.623,7.442.533,10.511-1.662a12.267,12.267,0,0,0,4.731-8.157,14.752,14.752,0,0,0-1.738-9.993,13.693,13.693,0,0,0-7.8-6.121A16.314,16.314,0,0,0,157.5,9.4c-2.293,1.17-.271,4.623,2.019,3.454Z"/><path class="g" d="M161.292,31.136c.257,8.111-9.976,9.987-16.171,10.2-6.873.232-15.222-.352-20.7-5.066-1.942-1.671-4.784,1.146-2.829,2.829,6.664,5.735,16.512,6.719,24.945,6.167,4.412-.288,9.118-1.2,12.916-3.587a12.2,12.2,0,0,0,5.837-10.539c-.081-2.568-4.082-2.579-4,0Z"/><path class="g" d="M130.282,9.047a11.812,11.812,0,0,0-3.511-1.161,20.987,20.987,0,0,0-5.824-.421,14.506,14.506,0,0,0-6.327,1.864,10.575,10.575,0,0,0-4.29,5.083,9.2,9.2,0,0,0-.165,7.545,2.016,2.016,0,0,0,2.736.717,2.046,2.046,0,0,0,.718-2.736c.109.236-.126-.426-.148-.511-.1-.395-.024.051-.054-.331a5.692,5.692,0,0,1,.043-1.3,7.955,7.955,0,0,1,1.081-2.895,7.126,7.126,0,0,1,4.734-3.159,11.858,11.858,0,0,1,2.932-.327c.517,0,1.033.017,1.548.056.56.043.836.076,1.11.123a20.088,20.088,0,0,1,2.365.527c.288.085.567.193.852.284.418.134-.277-.229-.073-.033a1.394,1.394,0,0,0,.255.132c2.234,1.287,4.251-2.168,2.018-3.454Z"/><path class="g" d="M112.9,19.22c-6.771-2.96-12.6,6.041-10.518,12.027a14.419,14.419,0,0,0,6.715,7.481,17.449,17.449,0,0,0,8.578,2,14.219,14.219,0,0,0,7.166-1.754c2.168-1.375.164-4.838-2.019-3.454-.242.155-.5.266-.752.4-.283.157.1-.043.139-.058-.082.029-.16.065-.242.093-.218.075-.435.152-.657.218-.391.117-.789.215-1.19.3-.216.044-.434.079-.652.118-.084.015-.389.055.022,0-.146.019-.293.035-.439.05a13.681,13.681,0,0,1-6.219-.63,7.691,7.691,0,0,1-1.323-.538,13.3,13.3,0,0,1-1.735-1.031,11.309,11.309,0,0,1-2.459-2.452,10.606,10.606,0,0,1-1.007-1.626,6.648,6.648,0,0,1-.229-.726,2.51,2.51,0,0,1-.114-.687,6.461,6.461,0,0,1,.607-3.151,6.571,6.571,0,0,1,2.185-2.683c.171-.11.641-.358.626-.352-.206.085.16-.051.207-.063.151-.038.3-.085.452-.115-.364.072.4-.008.569.01-.495-.051.625.228.27.073a2.065,2.065,0,0,0,2.737-.717,2.016,2.016,0,0,0-.718-2.737Z"/><path class="g" d="M127.912,30.177a8.542,8.542,0,0,0,11.885,3.2,2,2,0,1,0-2.019-3.454,5.709,5.709,0,0,1-.543.323,1.523,1.523,0,0,0-.257.124c.274-.229.312-.122.056-.03a5.887,5.887,0,0,1-.6.178c-.092.023-.185.043-.278.061-.205.039-.424-.02.082,0-.4-.014-.8.055-1.2.028-.1-.006-.191-.016-.286-.024-.419-.035.487.1.076.006-.207-.045-.413-.082-.618-.138s-.405-.119-.6-.192c-.072-.027-.4-.149-.081-.028s0-.007-.075-.042c-.375-.183-.7-.479-1.072-.655.131.062.332.278.095.062-.071-.063-.143-.125-.212-.19-.166-.157-.315-.326-.468-.5-.23-.255.2.294.068.091-.05-.081-.11-.156-.161-.235a5.724,5.724,0,0,1-.337-.6,2.013,2.013,0,0,0-2.737-.718,2.052,2.052,0,0,0-.717,2.737Z"/><path class="g" d="M99.341,37.055a7.136,7.136,0,0,0,9.111,10.819l-2.737-2.736a6.056,6.056,0,0,0,.943,7.291c1.931,2.126,4.959,2.66,7.665,3.012,5.846.759,12.033-.094,15.783-5.086a2.012,2.012,0,0,0-.718-2.736,2.048,2.048,0,0,0-2.736.717c-2.384,3.174-6.828,3.591-10.468,3.305a15.157,15.157,0,0,1-5.453-1.128c-1.211-.6-2.445-2-1.562-3.357,1.1-1.7-1.065-3.747-2.736-2.736a3.327,3.327,0,0,1-4.042-.364,3.28,3.28,0,0,1-.222-4.172,2.06,2.06,0,0,0,0-2.829,2.015,2.015,0,0,0-2.828,0Z"/><path class="h" d="M151.088,265.2V254.62h9.359V265.2"/><path class="f" d="M158.676,221.831a4.387,4.387,0,0,0-5.366,0,26.588,26.588,0,0,0-8.325,11.137,21.439,21.439,0,0,0-1.225,4.1,34.166,34.166,0,0,0-.419,4.054c-.151,2.391-.29,4.871.573,7.106a8.639,8.639,0,0,0,4.09,4.514c1.848.946,5.921,1.448,7.991,1.448,1.561,0,6.144-.5,7.992-1.448a8.643,8.643,0,0,0,4.09-4.514c.863-2.235.724-4.715.572-7.106a34.374,34.374,0,0,0-.418-4.054,21.511,21.511,0,0,0-1.225-4.1A26.571,26.571,0,0,0,158.676,221.831Z"/><path class="i" d="M160.447,254.62V265.2"/><path class="i" d="M151.088,254.62V265.2"/><path class="c" d="M159.686,220.1a6.486,6.486,0,0,0-4.931-1.06,9.338,9.338,0,0,0-4.4,2.662,28.169,28.169,0,0,0-6.37,8.6,28.747,28.747,0,0,0-2.661,11.042c-.236,3.832-.006,7.586,2.566,10.646,3.731,4.437,10.737,4.583,16.036,3.828,2.94-.419,5.694-1.19,7.805-3.417,2.707-2.856,3.172-6.6,2.97-10.382a29.623,29.623,0,0,0-2.968-12.259,27.986,27.986,0,0,0-7.645-9.345,2.066,2.066,0,0,0-2.829,0,2.013,2.013,0,0,0,0,2.828,24.181,24.181,0,0,1,9.078,14.577,38.264,38.264,0,0,1,.387,4.651,12.941,12.941,0,0,1-.429,4.8,6.552,6.552,0,0,1-4.876,4.22c-3.805.914-8.5,1.161-12.186-.372a6.9,6.9,0,0,1-3.976-6.164,27.8,27.8,0,0,1,.938-9.437,24.392,24.392,0,0,1,4.5-8.372c1.594-1.927,4.255-5.506,6.973-3.59C159.775,225.044,161.776,221.577,159.686,220.1Z"/><path class="c" d="M158.447,254.62V265.2a2,2,0,0,0,4,0V254.62a2,2,0,0,0-4,0Z"/><path class="c" d="M149.088,254.62V265.2a2,2,0,0,0,4,0V254.62a2,2,0,0,0-4,0Z"/><path class="h" d="M20.694,265.766V255.187h9.359v10.579"/><path class="f" d="M28.283,222.4a4.387,4.387,0,0,0-5.366,0,26.582,26.582,0,0,0-8.326,11.137,21.511,21.511,0,0,0-1.225,4.1,34.376,34.376,0,0,0-.419,4.054c-.151,2.391-.29,4.871.573,7.106a8.643,8.643,0,0,0,4.09,4.514c1.848.946,5.922,1.448,7.992,1.448,1.561,0,6.143-.5,7.991-1.448a8.639,8.639,0,0,0,4.09-4.514c.863-2.235.724-4.715.573-7.106a34.376,34.376,0,0,0-.419-4.054,21.511,21.511,0,0,0-1.225-4.1A26.569,26.569,0,0,0,28.283,222.4Z"/><path class="c" d="M29.292,220.671a6.484,6.484,0,0,0-4.93-1.06,9.336,9.336,0,0,0-4.4,2.662,28.169,28.169,0,0,0-6.37,8.6,28.747,28.747,0,0,0-2.661,11.042c-.235,3.832-.006,7.586,2.566,10.646,3.731,4.437,10.737,4.583,16.037,3.828,2.939-.419,5.694-1.19,7.8-3.417,2.708-2.856,3.173-6.6,2.97-10.382a29.623,29.623,0,0,0-2.968-12.259,27.974,27.974,0,0,0-7.645-9.345,2.066,2.066,0,0,0-2.829,0,2.013,2.013,0,0,0,0,2.828,24.187,24.187,0,0,1,9.079,14.577,38.263,38.263,0,0,1,.386,4.651,12.961,12.961,0,0,1-.428,4.8,6.554,6.554,0,0,1-4.876,4.22c-3.806.914-8.5,1.161-12.187-.372a6.9,6.9,0,0,1-3.975-6.165,27.738,27.738,0,0,1,.938-9.436,24.39,24.39,0,0,1,4.5-8.372c1.594-1.927,4.256-5.506,6.973-3.59C29.381,225.611,31.382,222.144,29.292,220.671Z"/><path class="c" d="M28.053,255.187v10.579a2,2,0,1,0,4,0V255.187a2,2,0,1,0-4,0Z"/><path class="c" d="M18.694,255.187v10.579a2,2,0,0,0,4,0V255.187a2,2,0,0,0-4,0Z"/><path class="a" d="M1.932,265.968c15.385,0,463.847-.17,478.39-.17"/><path class="c" d="M1.932,267.968q8.055,0,16.11,0l36.07-.012,50.969-.018,61.4-.023,66.812-.024,67.131-.025,63.1-.023,53.964-.019,39.862-.014,21.209-.007h1.765c2.574,0,2.578-4,0-4q-7.942,0-15.887,0l-35.9.013-50.843.018-61.32.022-66.783.025-67.149.025-63.165.023-54.079.019-40.024.014-21.42.007H1.932c-2.574,0-2.578,4,0,4Z"/></svg>